<svg xmlns="http://www.w3.org/2000/svg" xmlns:xlink="http://www.w3.org/1999/xlink" width="678" zoomAndPan="magnify" viewBox="192.75 695.999968912 508.5 162.7499927305" height="217" preserveAspectRatio="xMidYMid meet" version="1.0"><defs><g/><clipPath id="62e6c5689b"><path d="M 0.9375 0.324219 L 382.699219 0.324219 L 382.699219 380 L 0.9375 380 Z M 0.9375 0.324219 " clip-rule="nonzero"/></clipPath><clipPath id="0863b465cf"><path d="M 191.820312 0.324219 L 208.078125 125.457031 L 280.898438 22.242188 L 237.773438 141.011719 L 350.179688 83.039062 L 256.859375 167.875 L 382.699219 169.289062 L 260.394531 201.105469 L 371.390625 260.488281 L 249.082031 232.210938 L 319.074219 336.839844 L 224.339844 254.125 L 237.773438 379.257812 L 191.820312 261.902344 L 145.867188 379.257812 L 159.300781 254.125 L 64.566406 336.839844 L 134.554688 232.210938 L 12.25 260.488281 L 123.242188 201.105469 L 0.9375 169.289062 L 126.777344 167.875 L 33.460938 83.039062 L 145.867188 141.011719 L 102.742188 22.242188 L 175.558594 125.457031 Z M 191.820312 0.324219 " clip-rule="nonzero"/></clipPath><clipPath id="f732403538"><path d="M 0.9375 0.324219 L 382.699219 0.324219 L 382.699219 379.359375 L 0.9375 379.359375 Z M 0.9375 0.324219 " clip-rule="nonzero"/></clipPath><clipPath id="9f1277e1d0"><path d="M 191.820312 0.324219 L 208.078125 125.457031 L 280.898438 22.242188 L 237.773438 141.011719 L 350.179688 83.039062 L 256.859375 167.875 L 382.699219 169.289062 L 260.394531 201.105469 L 371.390625 260.488281 L 249.082031 232.210938 L 319.074219 336.839844 L 224.339844 254.125 L 237.773438 379.257812 L 191.820312 261.902344 L 145.867188 379.257812 L 159.300781 254.125 L 64.566406 336.839844 L 134.554688 232.210938 L 12.25 260.488281 L 123.242188 201.105469 L 0.9375 169.289062 L 126.777344 167.875 L 33.460938 83.039062 L 145.867188 141.011719 L 102.742188 22.242188 L 175.558594 125.457031 Z M 191.820312 0.324219 " clip-rule="nonzero"/></clipPath><clipPath id="ba79d3fa27"><rect x="0" width="383" y="0" height="380"/></clipPath><clipPath id="a32a4dac12"><path d="M 147.128906 146.515625 L 236.164062 146.515625 L 236.164062 235.550781 L 147.128906 235.550781 Z M 147.128906 146.515625 " clip-rule="nonzero"/></clipPath><clipPath id="b8ea6f60df"><path d="M 194.433594 146.9375 L 198.355469 161.21875 C 199.300781 161.425781 200.234375 161.675781 201.152344 161.96875 L 211.6875 151.5625 C 213.25 152.34375 214.761719 153.214844 216.21875 154.175781 L 212.472656 168.503906 C 213.1875 169.15625 213.871094 169.839844 214.523438 170.550781 L 228.847656 166.804688 C 229.808594 168.265625 230.683594 169.777344 231.464844 171.335938 L 221.058594 181.871094 C 221.351562 182.792969 221.601562 183.726562 221.808594 184.667969 L 236.089844 188.589844 C 236.191406 190.332031 236.191406 192.082031 236.089844 193.820312 L 221.808594 197.742188 C 221.601562 198.6875 221.351562 199.617188 221.058594 200.539062 L 231.464844 211.074219 C 230.683594 212.636719 229.808594 214.148438 228.847656 215.605469 L 214.523438 211.859375 C 213.871094 212.574219 213.1875 213.257812 212.472656 213.910156 L 216.21875 228.238281 C 214.761719 229.195312 213.25 230.070312 211.6875 230.851562 L 201.152344 220.445312 C 200.234375 220.738281 199.300781 220.988281 198.355469 221.195312 L 194.433594 235.472656 C 192.691406 235.578125 190.945312 235.578125 189.203125 235.472656 L 185.28125 221.195312 C 184.339844 220.988281 183.40625 220.738281 182.484375 220.445312 L 171.949219 230.851562 C 170.390625 230.070312 168.875 229.195312 167.417969 228.238281 L 171.164062 213.910156 C 170.449219 213.257812 169.769531 212.574219 169.117188 211.859375 L 154.789062 215.605469 C 153.828125 214.148438 152.953125 212.636719 152.171875 211.074219 L 162.582031 200.539062 C 162.285156 199.617188 162.035156 198.6875 161.832031 197.742188 L 147.550781 193.820312 C 147.449219 192.082031 147.449219 190.332031 147.550781 188.589844 L 161.832031 184.667969 C 162.035156 183.726562 162.285156 182.792969 162.582031 181.871094 L 152.171875 171.335938 C 152.953125 169.777344 153.828125 168.265625 154.789062 166.804688 L 169.117188 170.550781 C 169.769531 169.839844 170.449219 169.15625 171.164062 168.503906 L 167.417969 154.175781 C 168.875 153.214844 170.390625 152.34375 171.949219 151.5625 L 182.484375 161.96875 C 183.40625 161.675781 184.339844 161.425781 185.28125 161.21875 L 189.203125 146.9375 C 190.945312 146.835938 192.691406 146.835938 194.433594 146.9375 Z M 191.820312 170.21875 C 180.234375 170.21875 170.832031 179.621094 170.832031 191.207031 C 170.832031 202.789062 180.234375 212.195312 191.820312 212.195312 C 203.402344 212.195312 212.808594 202.789062 212.808594 191.207031 C 212.808594 179.621094 203.402344 170.21875 191.820312 170.21875 Z M 191.820312 170.21875 " clip-rule="nonzero"/></clipPath><clipPath id="b69dae8bb7"><path d="M 0.441406 0.800781 L 89.164062 0.800781 L 89.164062 89.550781 L 0.441406 89.550781 Z M 0.441406 0.800781 " clip-rule="nonzero"/></clipPath><clipPath id="d78e9c46b1"><path d="M 47.433594 0.9375 L 51.355469 15.21875 C 52.300781 15.425781 53.234375 15.675781 54.152344 15.96875 L 64.6875 5.5625 C 66.25 6.34375 67.761719 7.214844 69.21875 8.175781 L 65.472656 22.503906 C 66.1875 23.15625 66.871094 23.839844 67.523438 24.550781 L 81.847656 20.804688 C 82.808594 22.265625 83.683594 23.777344 84.464844 25.335938 L 74.058594 35.871094 C 74.351562 36.792969 74.601562 37.726562 74.808594 38.667969 L 89.089844 42.589844 C 89.191406 44.332031 89.191406 46.082031 89.089844 47.820312 L 74.808594 51.742188 C 74.601562 52.6875 74.351562 53.617188 74.058594 54.539062 L 84.464844 65.074219 C 83.683594 66.636719 82.808594 68.148438 81.847656 69.605469 L 67.523438 65.859375 C 66.871094 66.574219 66.1875 67.257812 65.472656 67.910156 L 69.21875 82.238281 C 67.761719 83.195312 66.25 84.070312 64.6875 84.851562 L 54.152344 74.445312 C 53.234375 74.738281 52.300781 74.988281 51.355469 75.195312 L 47.433594 89.472656 C 45.691406 89.578125 43.945312 89.578125 42.203125 89.472656 L 38.28125 75.195312 C 37.339844 74.988281 36.40625 74.738281 35.484375 74.445312 L 24.949219 84.851562 C 23.390625 84.070312 21.875 83.195312 20.417969 82.238281 L 24.164062 67.910156 C 23.449219 67.257812 22.769531 66.574219 22.117188 65.859375 L 7.789062 69.605469 C 6.828125 68.148438 5.953125 66.636719 5.171875 65.074219 L 15.582031 54.539062 C 15.285156 53.617188 15.035156 52.6875 14.832031 51.742188 L 0.550781 47.820312 C 0.449219 46.082031 0.449219 44.332031 0.550781 42.589844 L 14.832031 38.667969 C 15.035156 37.726562 15.285156 36.792969 15.582031 35.871094 L 5.171875 25.335938 C 5.953125 23.777344 6.828125 22.265625 7.789062 20.804688 L 22.117188 24.550781 C 22.769531 23.839844 23.449219 23.15625 24.164062 22.503906 L 20.417969 8.175781 C 21.875 7.214844 23.390625 6.34375 24.949219 5.5625 L 35.484375 15.96875 C 36.40625 15.675781 37.339844 15.425781 38.28125 15.21875 L 42.203125 0.9375 C 43.945312 0.835938 45.691406 0.835938 47.433594 0.9375 Z M 44.820312 24.21875 C 33.234375 24.21875 23.832031 33.621094 23.832031 45.207031 C 23.832031 56.789062 33.234375 66.195312 44.820312 66.195312 C 56.402344 66.195312 65.808594 56.789062 65.808594 45.207031 C 65.808594 33.621094 56.402344 24.21875 44.820312 24.21875 Z M 44.820312 24.21875 " clip-rule="nonzero"/></clipPath><clipPath id="a100d4111a"><rect x="0" width="90" y="0" height="90"/></clipPath><clipPath id="8d6b942f54"><rect x="0" width="383" y="0" height="383"/></clipPath></defs><g transform="matrix(1, 0, 0, 1, 88, 590)"><g clip-path="url(#8d6b942f54)"><g clip-path="url(#62e6c5689b)"><g clip-path="url(#0863b465cf)"><g transform="matrix(1, 0, 0, 1, 0.000000000000014211, 0.000000000000113687)"><g clip-path="url(#ba79d3fa27)"><g clip-path="url(#f732403538)"><g clip-path="url(#9f1277e1d0)"><path fill="#ffffff" d="M 0.9375 0.324219 L 382.699219 0.324219 L 382.699219 382.085938 L 0.9375 382.085938 Z M 0.9375 0.324219 " fill-opacity="1" fill-rule="nonzero"/></g></g></g></g></g></g><g clip-path="url(#a32a4dac12)"><g clip-path="url(#b8ea6f60df)"><g transform="matrix(1, 0, 0, 1, 147, 146)"><g clip-path="url(#a100d4111a)"><g clip-path="url(#b69dae8bb7)"><g clip-path="url(#d78e9c46b1)"><path fill="#010f30" d="M 0.472656 0.859375 L 89.164062 0.859375 L 89.164062 89.550781 L 0.472656 89.550781 Z M 0.472656 0.859375 " fill-opacity="1" fill-rule="nonzero"/></g></g></g></g></g></g></g></g><g fill="#ffffff" fill-opacity="1"><g transform="translate(493.667511, 851.331531)"><g><path d="M 65.453125 -110.34375 C 64.816406 -112.382812 64.5 -114.148438 64.5 -115.640625 C 64.5 -117.140625 64.578125 -118.832031 64.734375 -120.71875 C 64.890625 -122.613281 65.242188 -125.210938 65.796875 -128.515625 C 66.347656 -131.828125 67.410156 -135.097656 68.984375 -138.328125 C 70.566406 -141.554688 72.378906 -144.664062 74.421875 -147.65625 C 76.472656 -150.65625 79.113281 -153.414062 82.34375 -155.9375 C 85.570312 -158.457031 89.15625 -160.660156 93.09375 -162.546875 C 101.4375 -166.640625 111.59375 -168.6875 123.5625 -168.6875 C 147.664062 -168.6875 167.316406 -160.691406 182.515625 -144.703125 C 197.710938 -128.722656 205.3125 -108.289062 205.3125 -83.40625 C 205.3125 -58.519531 196.332031 -37.84375 178.375 -21.375 C 160.425781 -4.914062 137.664062 3.3125 110.09375 3.3125 C 82.53125 3.3125 59.648438 -4.875 41.453125 -21.25 C 23.265625 -37.632812 14.171875 -58.90625 14.171875 -85.0625 C 14.171875 -101.914062 18.109375 -116.878906 25.984375 -129.953125 C 33.859375 -143.023438 45.125 -153.257812 59.78125 -160.65625 L 61.1875 -158.53125 C 50.945312 -151.757812 43.582031 -141.992188 39.09375 -129.234375 C 34.613281 -116.472656 32.375 -102.925781 32.375 -88.59375 C 32.375 -61.976562 39.617188 -41.1875 54.109375 -26.21875 C 68.597656 -11.257812 87.179688 -3.78125 109.859375 -3.78125 C 132.546875 -3.78125 151.09375 -11.300781 165.5 -26.34375 C 179.914062 -41.382812 187.125 -61.191406 187.125 -85.765625 C 187.125 -107.023438 181.410156 -124.976562 169.984375 -139.625 C 158.566406 -154.28125 142.460938 -161.609375 121.671875 -161.609375 C 112.378906 -161.609375 103.953125 -159.953125 96.390625 -156.640625 C 82.691406 -150.816406 73.632812 -141.207031 69.21875 -127.8125 C 67.957031 -123.875 67.328125 -120.488281 67.328125 -117.65625 C 67.328125 -114.820312 67.488281 -112.539062 67.8125 -110.8125 Z M 65.453125 -110.34375 "/></g></g></g><g fill="#ffffff" fill-opacity="1"><g transform="translate(706.06933, 851.331531)"><g><path d="M 83.171875 -169.171875 C 96.867188 -169.171875 108.285156 -165.863281 117.421875 -159.25 C 129.710938 -150.425781 135.859375 -136.640625 135.859375 -117.890625 C 135.859375 -104.347656 132.078125 -92.773438 124.515625 -83.171875 C 116.316406 -72.929688 104.894531 -67.8125 90.25 -67.8125 C 82.53125 -67.8125 75.519531 -69.660156 69.21875 -73.359375 C 62.925781 -77.054688 59.226562 -83.394531 58.125 -92.375 L 60.25 -93.09375 C 61.976562 -86.3125 65.992188 -81.582031 72.296875 -78.90625 C 76.546875 -77.019531 80.328125 -76.078125 83.640625 -76.078125 C 96.554688 -76.078125 105.925781 -81.117188 111.75 -91.203125 C 116.007812 -98.597656 118.140625 -107.414062 118.140625 -117.65625 C 118.140625 -134.039062 113.566406 -145.851562 104.421875 -153.09375 C 97.492188 -158.769531 88.675781 -161.609375 77.96875 -161.609375 C 75.445312 -161.609375 73.28125 -161.488281 71.46875 -161.25 C 69.65625 -161.007812 61.738281 -159.710938 47.71875 -157.359375 L 47.71875 -17.25 C 47.882812 -13 49.460938 -9.453125 52.453125 -6.609375 C 55.441406 -3.773438 58.90625 -2.359375 62.84375 -2.359375 L 65.921875 -2.359375 L 65.921875 0 L 14.171875 0 L 14.171875 -2.359375 L 17.25 -2.359375 C 21.1875 -2.359375 24.648438 -3.773438 27.640625 -6.609375 C 30.628906 -9.453125 32.207031 -13 32.375 -17.25 L 32.375 -145.0625 C 32.375 -149.15625 31.191406 -152.34375 28.828125 -154.625 C 26.460938 -156.914062 23.390625 -158.0625 19.609375 -158.0625 C 18.816406 -158.0625 18.03125 -157.984375 17.25 -157.828125 L 14.40625 -157.59375 L 13.9375 -159.953125 C 22.125 -160.742188 33.109375 -162.28125 46.890625 -164.5625 C 60.679688 -166.84375 69.226562 -168.179688 72.53125 -168.578125 C 75.84375 -168.972656 79.390625 -169.171875 83.171875 -169.171875 Z M 83.171875 -169.171875 "/></g></g></g><g fill="#ffffff" fill-opacity="1"><g transform="translate(852.55337, 851.331531)"><g><path d="M 28.109375 -62.84375 C 19.921875 -52.132812 15.828125 -40.554688 15.828125 -28.109375 C 15.828125 -13.304688 22.050781 -1.8125 34.5 6.375 C 41.738281 11.257812 49.960938 13.703125 59.171875 13.703125 C 68.390625 13.703125 76.390625 11.890625 83.171875 8.265625 C 95.921875 1.648438 103.085938 -9.453125 104.671875 -25.046875 C 104.828125 -26.148438 104.90625 -27.253906 104.90625 -28.359375 C 104.90625 -34.179688 103.289062 -40.476562 100.0625 -47.25 C 96.832031 -54.019531 91.59375 -60.242188 84.34375 -65.921875 L 41.8125 -99.46875 C 32.519531 -106.71875 27.875 -116.085938 27.875 -127.578125 C 27.875 -139.078125 31.578125 -148.800781 38.984375 -156.75 C 46.390625 -164.707031 56.390625 -168.6875 68.984375 -168.6875 C 75.285156 -168.6875 82.140625 -167.898438 89.546875 -166.328125 L 99 -166.328125 L 99.46875 -137.265625 L 97.109375 -137.265625 C 96.953125 -144.828125 94.234375 -150.773438 88.953125 -155.109375 C 83.679688 -159.441406 77.066406 -161.609375 69.109375 -161.609375 C 61.148438 -161.609375 54.492188 -158.96875 49.140625 -153.6875 C 43.785156 -148.414062 41.109375 -141.644531 41.109375 -133.375 C 41.109375 -125.101562 44.570312 -118.210938 51.5 -112.703125 L 95.21875 -78.203125 C 112.539062 -64.503906 121.203125 -47.96875 121.203125 -28.59375 C 121.203125 -14.101562 115.453125 -1.660156 103.953125 8.734375 C 94.035156 17.710938 80.804688 22.203125 64.265625 22.203125 C 54.179688 22.203125 45.203125 20.3125 37.328125 16.53125 C 22.523438 9.601562 13.625 -2.207031 10.625 -18.90625 C 10.15625 -21.425781 9.921875 -24.613281 9.921875 -28.46875 C 9.921875 -32.332031 11.019531 -37.609375 13.21875 -44.296875 C 15.425781 -50.992188 19.679688 -57.726562 25.984375 -64.5 Z M 28.109375 -62.84375 "/></g></g></g><g fill="#ffffff" fill-opacity="1"><g transform="translate(982.262619, 851.331531)"><g><path d="M 83.171875 -169.171875 C 96.867188 -169.171875 108.285156 -165.863281 117.421875 -159.25 C 129.710938 -150.425781 135.859375 -136.640625 135.859375 -117.890625 C 135.859375 -104.347656 132.078125 -92.773438 124.515625 -83.171875 C 116.316406 -72.929688 104.894531 -67.8125 90.25 -67.8125 C 82.53125 -67.8125 75.519531 -69.660156 69.21875 -73.359375 C 62.925781 -77.054688 59.226562 -83.394531 58.125 -92.375 L 60.25 -93.09375 C 61.976562 -86.3125 65.992188 -81.582031 72.296875 -78.90625 C 76.546875 -77.019531 80.328125 -76.078125 83.640625 -76.078125 C 96.554688 -76.078125 105.925781 -81.117188 111.75 -91.203125 C 116.007812 -98.597656 118.140625 -107.414062 118.140625 -117.65625 C 118.140625 -134.039062 113.566406 -145.851562 104.421875 -153.09375 C 97.492188 -158.769531 88.675781 -161.609375 77.96875 -161.609375 C 75.445312 -161.609375 73.28125 -161.488281 71.46875 -161.25 C 69.65625 -161.007812 61.738281 -159.710938 47.71875 -157.359375 L 47.71875 -17.25 C 47.882812 -13 49.460938 -9.453125 52.453125 -6.609375 C 55.441406 -3.773438 58.90625 -2.359375 62.84375 -2.359375 L 65.921875 -2.359375 L 65.921875 0 L 14.171875 0 L 14.171875 -2.359375 L 17.25 -2.359375 C 21.1875 -2.359375 24.648438 -3.773438 27.640625 -6.609375 C 30.628906 -9.453125 32.207031 -13 32.375 -17.25 L 32.375 -145.0625 C 32.375 -149.15625 31.191406 -152.34375 28.828125 -154.625 C 26.460938 -156.914062 23.390625 -158.0625 19.609375 -158.0625 C 18.816406 -158.0625 18.03125 -157.984375 17.25 -157.828125 L 14.40625 -157.59375 L 13.9375 -159.953125 C 22.125 -160.742188 33.109375 -162.28125 46.890625 -164.5625 C 60.679688 -166.84375 69.226562 -168.179688 72.53125 -168.578125 C 75.84375 -168.972656 79.390625 -169.171875 83.171875 -169.171875 Z M 83.171875 -169.171875 "/></g></g></g></svg>