<svg xmlns="http://www.w3.org/2000/svg" xmlns:xlink="http://www.w3.org/1999/xlink" width="2000" zoomAndPan="magnify" viewBox="0 0 1500 1499.999933" height="2000" preserveAspectRatio="xMidYMid meet" version="1.0"><defs><clipPath id="d9f9e6bfac"><path d="M 0.464844 0.550781 L 519.535156 0.550781 L 519.535156 516 L 0.464844 516 Z M 0.464844 0.550781 " clip-rule="nonzero"/></clipPath><clipPath id="f7d068692e"><path d="M 260 0.550781 L 282.109375 170.6875 L 381.117188 30.347656 L 322.480469 191.835938 L 475.316406 113.015625 L 348.433594 228.363281 L 519.535156 230.285156 L 353.242188 273.542969 L 504.15625 354.285156 L 337.859375 315.835938 L 433.023438 458.101562 L 304.21875 345.636719 L 322.480469 515.773438 L 260 356.207031 L 197.519531 515.773438 L 215.78125 345.636719 L 86.976562 458.101562 L 182.140625 315.835938 L 15.84375 354.285156 L 166.757812 273.542969 L 0.464844 230.285156 L 171.566406 228.363281 L 44.683594 113.015625 L 197.519531 191.835938 L 138.882812 30.347656 L 237.890625 170.6875 Z M 260 0.550781 " clip-rule="nonzero"/></clipPath><clipPath id="02f7e18ccd"><path d="M 0.464844 0.550781 L 519.535156 0.550781 L 519.535156 515.878906 L 0.464844 515.878906 Z M 0.464844 0.550781 " clip-rule="nonzero"/></clipPath><clipPath id="55f375cf4f"><path d="M 260 0.550781 L 282.109375 170.6875 L 381.117188 30.347656 L 322.480469 191.835938 L 475.316406 113.015625 L 348.433594 228.363281 L 519.535156 230.285156 L 353.242188 273.542969 L 504.15625 354.285156 L 337.859375 315.835938 L 433.023438 458.101562 L 304.21875 345.636719 L 322.480469 515.773438 L 260 356.207031 L 197.519531 515.773438 L 215.78125 345.636719 L 86.976562 458.101562 L 182.140625 315.835938 L 15.84375 354.285156 L 166.757812 273.542969 L 0.464844 230.285156 L 171.566406 228.363281 L 44.683594 113.015625 L 197.519531 191.835938 L 138.882812 30.347656 L 237.890625 170.6875 Z M 260 0.550781 " clip-rule="nonzero"/></clipPath><clipPath id="b043887915"><rect x="0" width="520" y="0" height="516"/></clipPath><clipPath id="2812ed9db4"><path d="M 199.234375 199.316406 L 320.296875 199.316406 L 320.296875 320.378906 L 199.234375 320.378906 Z M 199.234375 199.316406 " clip-rule="nonzero"/></clipPath><clipPath id="34121e29f5"><path d="M 263.554688 199.894531 L 268.886719 219.308594 C 270.167969 219.589844 271.4375 219.929688 272.691406 220.332031 L 287.015625 206.179688 C 289.136719 207.242188 291.195312 208.429688 293.175781 209.738281 L 288.082031 229.21875 C 289.054688 230.101562 289.984375 231.03125 290.867188 232 L 310.347656 226.90625 C 311.65625 228.890625 312.84375 230.949219 313.90625 233.070312 L 299.753906 247.394531 C 300.152344 248.644531 300.492188 249.914062 300.773438 251.195312 L 320.191406 256.527344 C 320.332031 258.898438 320.332031 261.273438 320.191406 263.640625 L 300.773438 268.972656 C 300.492188 270.253906 300.152344 271.523438 299.753906 272.773438 L 313.90625 287.097656 C 312.84375 289.222656 311.65625 291.277344 310.347656 293.257812 L 290.867188 288.167969 C 289.984375 289.140625 289.054688 290.066406 288.082031 290.953125 L 293.175781 310.433594 C 291.195312 311.738281 289.136719 312.925781 287.015625 313.988281 L 272.691406 299.839844 C 271.4375 300.238281 270.167969 300.578125 268.886719 300.855469 L 263.554688 320.273438 C 261.1875 320.414062 258.8125 320.414062 256.441406 320.273438 L 251.113281 300.855469 C 249.828125 300.578125 248.558594 300.238281 247.308594 299.839844 L 232.984375 313.988281 C 230.863281 312.925781 228.804688 311.738281 226.824219 310.433594 L 231.917969 290.953125 C 230.945312 290.066406 230.015625 289.140625 229.132812 288.167969 L 209.652344 293.257812 C 208.34375 291.277344 207.15625 289.222656 206.09375 287.097656 L 220.246094 272.773438 C 219.84375 271.523438 219.503906 270.253906 219.226562 268.972656 L 199.808594 263.640625 C 199.667969 261.273438 199.667969 258.898438 199.808594 256.527344 L 219.226562 251.195312 C 219.503906 249.914062 219.84375 248.644531 220.246094 247.394531 L 206.09375 233.070312 C 207.15625 230.949219 208.34375 228.890625 209.652344 226.90625 L 229.132812 232 C 230.015625 231.03125 230.945312 230.101562 231.917969 229.21875 L 226.824219 209.738281 C 228.804688 208.429688 230.863281 207.242188 232.984375 206.179688 L 247.308594 220.332031 C 248.558594 219.929688 249.828125 219.589844 251.113281 219.308594 L 256.441406 199.894531 C 258.8125 199.753906 261.1875 199.753906 263.554688 199.894531 Z M 260 231.546875 C 244.25 231.546875 231.460938 244.335938 231.460938 260.082031 C 231.460938 275.835938 244.25 288.621094 260 288.621094 C 275.75 288.621094 288.539062 275.835938 288.539062 260.082031 C 288.539062 244.335938 275.75 231.546875 260 231.546875 Z M 260 231.546875 " clip-rule="nonzero"/></clipPath><clipPath id="674ad848c9"><path d="M 0.519531 0.558594 L 121.296875 0.558594 L 121.296875 121.378906 L 0.519531 121.378906 Z M 0.519531 0.558594 " clip-rule="nonzero"/></clipPath><clipPath id="728cc1b70b"><path d="M 64.554688 0.894531 L 69.886719 20.308594 C 71.167969 20.589844 72.4375 20.929688 73.691406 21.332031 L 88.015625 7.179688 C 90.136719 8.242188 92.195312 9.429688 94.175781 10.738281 L 89.082031 30.21875 C 90.054688 31.101562 90.984375 32.03125 91.867188 33 L 111.347656 27.90625 C 112.65625 29.890625 113.84375 31.949219 114.90625 34.070312 L 100.753906 48.394531 C 101.152344 49.644531 101.492188 50.914062 101.773438 52.195312 L 121.191406 57.527344 C 121.332031 59.898438 121.332031 62.273438 121.191406 64.640625 L 101.773438 69.972656 C 101.492188 71.253906 101.152344 72.523438 100.753906 73.773438 L 114.90625 88.097656 C 113.84375 90.222656 112.65625 92.277344 111.347656 94.257812 L 91.867188 89.167969 C 90.984375 90.140625 90.054688 91.066406 89.082031 91.953125 L 94.175781 111.433594 C 92.195312 112.738281 90.136719 113.925781 88.015625 114.988281 L 73.691406 100.839844 C 72.4375 101.238281 71.167969 101.578125 69.886719 101.855469 L 64.554688 121.273438 C 62.1875 121.414062 59.8125 121.414062 57.441406 121.273438 L 52.113281 101.855469 C 50.828125 101.578125 49.558594 101.238281 48.308594 100.839844 L 33.984375 114.988281 C 31.863281 113.925781 29.804688 112.738281 27.824219 111.433594 L 32.917969 91.953125 C 31.945312 91.066406 31.015625 90.140625 30.132812 89.167969 L 10.652344 94.257812 C 9.34375 92.277344 8.15625 90.222656 7.09375 88.097656 L 21.246094 73.773438 C 20.84375 72.523438 20.503906 71.253906 20.226562 69.972656 L 0.808594 64.640625 C 0.667969 62.273438 0.667969 59.898438 0.808594 57.527344 L 20.226562 52.195312 C 20.503906 50.914062 20.84375 49.644531 21.246094 48.394531 L 7.09375 34.070312 C 8.15625 31.949219 9.34375 29.890625 10.652344 27.90625 L 30.132812 33 C 31.015625 32.03125 31.945312 31.101562 32.917969 30.21875 L 27.824219 10.738281 C 29.804688 9.429688 31.863281 8.242188 33.984375 7.179688 L 48.308594 21.332031 C 49.558594 20.929688 50.828125 20.589844 52.113281 20.308594 L 57.441406 0.894531 C 59.8125 0.753906 62.1875 0.753906 64.554688 0.894531 Z M 61 32.546875 C 45.25 32.546875 32.460938 45.335938 32.460938 61.082031 C 32.460938 76.835938 45.25 89.621094 61 89.621094 C 76.75 89.621094 89.539062 76.835938 89.539062 61.082031 C 89.539062 45.335938 76.75 32.546875 61 32.546875 Z M 61 32.546875 " clip-rule="nonzero"/></clipPath><clipPath id="452f6a9076"><rect x="0" width="122" y="0" height="122"/></clipPath><clipPath id="6fa3c18f22"><rect x="0" width="520" y="0" height="520"/></clipPath></defs><g transform="matrix(1, 0, 0, 1, 490, 549)"><g clip-path="url(#6fa3c18f22)"><g clip-path="url(#d9f9e6bfac)"><g clip-path="url(#f7d068692e)"><g transform="matrix(1, 0, 0, 1, 0, 0.000000000000113687)"><g clip-path="url(#b043887915)"><g clip-path="url(#02f7e18ccd)"><g clip-path="url(#55f375cf4f)"><path fill="#ffffff" d="M 0.464844 0.550781 L 519.535156 0.550781 L 519.535156 519.621094 L 0.464844 519.621094 Z M 0.464844 0.550781 " fill-opacity="1" fill-rule="nonzero"/></g></g></g></g></g></g><g clip-path="url(#2812ed9db4)"><g clip-path="url(#34121e29f5)"><g transform="matrix(1, 0, 0, 1, 199, 199)"><g clip-path="url(#452f6a9076)"><g clip-path="url(#674ad848c9)"><g clip-path="url(#728cc1b70b)"><path fill="#010f30" d="M 0.703125 0.789062 L 121.296875 0.789062 L 121.296875 121.378906 L 0.703125 121.378906 Z M 0.703125 0.789062 " fill-opacity="1" fill-rule="nonzero"/></g></g></g></g></g></g></g></g></svg>