<svg xmlns="http://www.w3.org/2000/svg" xmlns:xlink="http://www.w3.org/1999/xlink" width="2000" zoomAndPan="magnify" viewBox="0 0 1500 1499.999933" height="2000" preserveAspectRatio="xMidYMid meet" version="1.0"><defs><g/><clipPath id="852fbfb134"><path d="M 0 0.40625 L 381.761719 0.40625 L 381.761719 380 L 0 380 Z M 0 0.40625 " clip-rule="nonzero"/></clipPath><clipPath id="42a5b8edb5"><path d="M 190.878906 0.40625 L 207.140625 125.539062 L 279.957031 22.320312 L 236.832031 141.09375 L 349.242188 83.121094 L 255.921875 167.957031 L 381.761719 169.371094 L 259.457031 201.183594 L 370.449219 260.570312 L 248.144531 232.289062 L 318.132812 336.921875 L 223.402344 254.207031 L 236.832031 379.339844 L 190.878906 261.984375 L 144.929688 379.339844 L 158.359375 254.207031 L 63.625 336.921875 L 133.617188 232.289062 L 11.3125 260.570312 L 122.304688 201.183594 L 0 169.371094 L 125.839844 167.957031 L 32.519531 83.121094 L 144.929688 141.09375 L 101.804688 22.320312 L 174.621094 125.539062 Z M 190.878906 0.40625 " clip-rule="nonzero"/></clipPath><clipPath id="b6cef34c1b"><path d="M 0 0.40625 L 381.761719 0.40625 L 381.761719 379.519531 L 0 379.519531 Z M 0 0.40625 " clip-rule="nonzero"/></clipPath><clipPath id="59fa2f8545"><path d="M 190.878906 0.40625 L 207.140625 125.539062 L 279.957031 22.320312 L 236.832031 141.09375 L 349.242188 83.121094 L 255.921875 167.957031 L 381.761719 169.371094 L 259.457031 201.183594 L 370.449219 260.570312 L 248.144531 232.289062 L 318.132812 336.921875 L 223.402344 254.207031 L 236.832031 379.339844 L 190.878906 261.984375 L 144.929688 379.339844 L 158.359375 254.207031 L 63.625 336.921875 L 133.617188 232.289062 L 11.3125 260.570312 L 122.304688 201.183594 L 0 169.371094 L 125.839844 167.957031 L 32.519531 83.121094 L 144.929688 141.09375 L 101.804688 22.320312 L 174.621094 125.539062 Z M 190.878906 0.40625 " clip-rule="nonzero"/></clipPath><clipPath id="301ac4cd31"><rect x="0" width="382" y="0" height="380"/></clipPath><clipPath id="2e67752b67"><path d="M 146.1875 146.59375 L 235.226562 146.59375 L 235.226562 235.632812 L 146.1875 235.632812 Z M 146.1875 146.59375 " clip-rule="nonzero"/></clipPath><clipPath id="af5a78ac5f"><path d="M 193.496094 147.019531 L 197.417969 161.296875 C 198.359375 161.503906 199.292969 161.753906 200.214844 162.050781 L 210.75 151.640625 C 212.308594 152.425781 213.824219 153.296875 215.28125 154.257812 L 211.535156 168.585938 C 212.25 169.234375 212.933594 169.917969 213.582031 170.632812 L 227.910156 166.886719 C 228.871094 168.34375 229.746094 169.859375 230.527344 171.417969 L 220.117188 181.953125 C 220.414062 182.875 220.664062 183.808594 220.867188 184.75 L 235.148438 188.671875 C 235.253906 190.414062 235.253906 192.160156 235.148438 193.902344 L 220.867188 197.824219 C 220.664062 198.765625 220.414062 199.699219 220.117188 200.621094 L 230.527344 211.15625 C 229.746094 212.714844 228.871094 214.230469 227.910156 215.6875 L 213.582031 211.941406 C 212.933594 212.65625 212.25 213.339844 211.535156 213.988281 L 215.28125 228.316406 C 213.824219 229.277344 212.308594 230.152344 210.75 230.933594 L 200.214844 220.523438 C 199.292969 220.820312 198.359375 221.070312 197.417969 221.273438 L 193.496094 235.554688 C 191.753906 235.660156 190.007812 235.660156 188.265625 235.554688 L 184.34375 221.273438 C 183.402344 221.070312 182.46875 220.820312 181.546875 220.523438 L 171.011719 230.933594 C 169.449219 230.152344 167.9375 229.277344 166.480469 228.316406 L 170.226562 213.988281 C 169.511719 213.339844 168.828125 212.65625 168.175781 211.941406 L 153.851562 215.6875 C 152.890625 214.230469 152.015625 212.714844 151.234375 211.15625 L 161.640625 200.621094 C 161.347656 199.699219 161.097656 198.765625 160.894531 197.824219 L 146.613281 193.902344 C 146.507812 192.160156 146.507812 190.414062 146.613281 188.671875 L 160.894531 184.75 C 161.097656 183.808594 161.347656 182.875 161.640625 181.953125 L 151.234375 171.417969 C 152.015625 169.859375 152.890625 168.34375 153.851562 166.886719 L 168.175781 170.632812 C 168.828125 169.917969 169.511719 169.234375 170.226562 168.585938 L 166.480469 154.257812 C 167.9375 153.296875 169.449219 152.425781 171.011719 151.640625 L 181.546875 162.050781 C 182.46875 161.753906 183.402344 161.503906 184.34375 161.296875 L 188.265625 147.019531 C 190.007812 146.914062 191.753906 146.914062 193.496094 147.019531 Z M 190.878906 170.296875 C 179.296875 170.296875 169.890625 179.703125 169.890625 191.285156 C 169.890625 202.871094 179.296875 212.273438 190.878906 212.273438 C 202.464844 212.273438 211.867188 202.871094 211.867188 191.285156 C 211.867188 179.703125 202.464844 170.296875 190.878906 170.296875 Z M 190.878906 170.296875 " clip-rule="nonzero"/></clipPath><clipPath id="f092fc9210"><path d="M 0.398438 0.71875 L 89.226562 0.71875 L 89.226562 89.632812 L 0.398438 89.632812 Z M 0.398438 0.71875 " clip-rule="nonzero"/></clipPath><clipPath id="5a59060a07"><path d="M 47.496094 1.019531 L 51.417969 15.296875 C 52.359375 15.503906 53.292969 15.753906 54.214844 16.050781 L 64.75 5.640625 C 66.308594 6.425781 67.824219 7.296875 69.28125 8.257812 L 65.535156 22.585938 C 66.25 23.234375 66.933594 23.917969 67.582031 24.632812 L 81.910156 20.886719 C 82.871094 22.34375 83.746094 23.859375 84.527344 25.417969 L 74.117188 35.953125 C 74.414062 36.875 74.664062 37.808594 74.867188 38.75 L 89.148438 42.671875 C 89.253906 44.414062 89.253906 46.160156 89.148438 47.902344 L 74.867188 51.824219 C 74.664062 52.765625 74.414062 53.699219 74.117188 54.621094 L 84.527344 65.15625 C 83.746094 66.714844 82.871094 68.230469 81.910156 69.6875 L 67.582031 65.941406 C 66.933594 66.65625 66.25 67.339844 65.535156 67.988281 L 69.28125 82.316406 C 67.824219 83.277344 66.308594 84.152344 64.75 84.933594 L 54.214844 74.523438 C 53.292969 74.820312 52.359375 75.070312 51.417969 75.273438 L 47.496094 89.554688 C 45.753906 89.660156 44.007812 89.660156 42.265625 89.554688 L 38.34375 75.273438 C 37.402344 75.070312 36.46875 74.820312 35.546875 74.523438 L 25.011719 84.933594 C 23.449219 84.152344 21.9375 83.277344 20.480469 82.316406 L 24.226562 67.988281 C 23.511719 67.339844 22.828125 66.65625 22.175781 65.941406 L 7.851562 69.6875 C 6.890625 68.230469 6.015625 66.714844 5.234375 65.15625 L 15.640625 54.621094 C 15.347656 53.699219 15.097656 52.765625 14.894531 51.824219 L 0.613281 47.902344 C 0.507812 46.160156 0.507812 44.414062 0.613281 42.671875 L 14.894531 38.75 C 15.097656 37.808594 15.347656 36.875 15.640625 35.953125 L 5.234375 25.417969 C 6.015625 23.859375 6.890625 22.34375 7.851562 20.886719 L 22.175781 24.632812 C 22.828125 23.917969 23.511719 23.234375 24.226562 22.585938 L 20.480469 8.257812 C 21.9375 7.296875 23.449219 6.425781 25.011719 5.640625 L 35.546875 16.050781 C 36.46875 15.753906 37.402344 15.503906 38.34375 15.296875 L 42.265625 1.019531 C 44.007812 0.914062 45.753906 0.914062 47.496094 1.019531 Z M 44.878906 24.296875 C 33.296875 24.296875 23.890625 33.703125 23.890625 45.285156 C 23.890625 56.871094 33.296875 66.273438 44.878906 66.273438 C 56.464844 66.273438 65.867188 56.871094 65.867188 45.285156 C 65.867188 33.703125 56.464844 24.296875 44.878906 24.296875 Z M 44.878906 24.296875 " clip-rule="nonzero"/></clipPath><clipPath id="9d4111bbec"><rect x="0" width="90" y="0" height="90"/></clipPath><clipPath id="0f492296bf"><path d="M 404 31 L 1040.160156 31 L 1040.160156 350 L 404 350 Z M 404 31 " clip-rule="nonzero"/></clipPath><clipPath id="e9d12abb6a"><rect x="0" width="637" y="0" height="319"/></clipPath><clipPath id="9476159d5f"><rect x="0" width="1041" y="0" height="383"/></clipPath></defs><g transform="matrix(1, 0, 0, 1, 150, 592)"><g clip-path="url(#9476159d5f)"><g clip-path="url(#852fbfb134)"><g clip-path="url(#42a5b8edb5)"><g transform="matrix(1, 0, 0, 1, 0, 0.000000000000113687)"><g clip-path="url(#301ac4cd31)"><g clip-path="url(#b6cef34c1b)"><g clip-path="url(#59fa2f8545)"><path fill="#010f30" d="M 0 0.40625 L 381.761719 0.40625 L 381.761719 382.167969 L 0 382.167969 Z M 0 0.40625 " fill-opacity="1" fill-rule="nonzero"/></g></g></g></g></g></g><g clip-path="url(#2e67752b67)"><g clip-path="url(#af5a78ac5f)"><g transform="matrix(1, 0, 0, 1, 146, 146)"><g clip-path="url(#9d4111bbec)"><g clip-path="url(#f092fc9210)"><g clip-path="url(#5a59060a07)"><path fill="#ffffff" d="M 0.535156 0.941406 L 89.226562 0.941406 L 89.226562 89.632812 L 0.535156 89.632812 Z M 0.535156 0.941406 " fill-opacity="1" fill-rule="nonzero"/></g></g></g></g></g></g><g clip-path="url(#0f492296bf)"><g transform="matrix(1, 0, 0, 1, 404, 31)"><g clip-path="url(#e9d12abb6a)"><g fill="#010f30" fill-opacity="1"><g transform="translate(0.728521, 230.412016)"><g><path d="M 65.453125 -110.34375 C 64.816406 -112.382812 64.5 -114.148438 64.5 -115.640625 C 64.5 -117.140625 64.578125 -118.832031 64.734375 -120.71875 C 64.890625 -122.613281 65.242188 -125.210938 65.796875 -128.515625 C 66.347656 -131.828125 67.410156 -135.097656 68.984375 -138.328125 C 70.566406 -141.554688 72.378906 -144.664062 74.421875 -147.65625 C 76.472656 -150.65625 79.113281 -153.414062 82.34375 -155.9375 C 85.570312 -158.457031 89.15625 -160.660156 93.09375 -162.546875 C 101.4375 -166.640625 111.59375 -168.6875 123.5625 -168.6875 C 147.664062 -168.6875 167.316406 -160.691406 182.515625 -144.703125 C 197.710938 -128.722656 205.3125 -108.289062 205.3125 -83.40625 C 205.3125 -58.519531 196.332031 -37.84375 178.375 -21.375 C 160.425781 -4.914062 137.664062 3.3125 110.09375 3.3125 C 82.53125 3.3125 59.648438 -4.875 41.453125 -21.25 C 23.265625 -37.632812 14.171875 -58.90625 14.171875 -85.0625 C 14.171875 -101.914062 18.109375 -116.878906 25.984375 -129.953125 C 33.859375 -143.023438 45.125 -153.257812 59.78125 -160.65625 L 61.1875 -158.53125 C 50.945312 -151.757812 43.582031 -141.992188 39.09375 -129.234375 C 34.613281 -116.472656 32.375 -102.925781 32.375 -88.59375 C 32.375 -61.976562 39.617188 -41.1875 54.109375 -26.21875 C 68.597656 -11.257812 87.179688 -3.78125 109.859375 -3.78125 C 132.546875 -3.78125 151.09375 -11.300781 165.5 -26.34375 C 179.914062 -41.382812 187.125 -61.191406 187.125 -85.765625 C 187.125 -107.023438 181.410156 -124.976562 169.984375 -139.625 C 158.566406 -154.28125 142.460938 -161.609375 121.671875 -161.609375 C 112.378906 -161.609375 103.953125 -159.953125 96.390625 -156.640625 C 82.691406 -150.816406 73.632812 -141.207031 69.21875 -127.8125 C 67.957031 -123.875 67.328125 -120.488281 67.328125 -117.65625 C 67.328125 -114.820312 67.488281 -112.539062 67.8125 -110.8125 Z M 65.453125 -110.34375 "/></g></g></g><g fill="#010f30" fill-opacity="1"><g transform="translate(213.13034, 230.412016)"><g><path d="M 83.171875 -169.171875 C 96.867188 -169.171875 108.285156 -165.863281 117.421875 -159.25 C 129.710938 -150.425781 135.859375 -136.640625 135.859375 -117.890625 C 135.859375 -104.347656 132.078125 -92.773438 124.515625 -83.171875 C 116.316406 -72.929688 104.894531 -67.8125 90.25 -67.8125 C 82.53125 -67.8125 75.519531 -69.660156 69.21875 -73.359375 C 62.925781 -77.054688 59.226562 -83.394531 58.125 -92.375 L 60.25 -93.09375 C 61.976562 -86.3125 65.992188 -81.582031 72.296875 -78.90625 C 76.546875 -77.019531 80.328125 -76.078125 83.640625 -76.078125 C 96.554688 -76.078125 105.925781 -81.117188 111.75 -91.203125 C 116.007812 -98.597656 118.140625 -107.414062 118.140625 -117.65625 C 118.140625 -134.039062 113.566406 -145.851562 104.421875 -153.09375 C 97.492188 -158.769531 88.675781 -161.609375 77.96875 -161.609375 C 75.445312 -161.609375 73.28125 -161.488281 71.46875 -161.25 C 69.65625 -161.007812 61.738281 -159.710938 47.71875 -157.359375 L 47.71875 -17.25 C 47.882812 -13 49.460938 -9.453125 52.453125 -6.609375 C 55.441406 -3.773438 58.90625 -2.359375 62.84375 -2.359375 L 65.921875 -2.359375 L 65.921875 0 L 14.171875 0 L 14.171875 -2.359375 L 17.25 -2.359375 C 21.1875 -2.359375 24.648438 -3.773438 27.640625 -6.609375 C 30.628906 -9.453125 32.207031 -13 32.375 -17.25 L 32.375 -145.0625 C 32.375 -149.15625 31.191406 -152.34375 28.828125 -154.625 C 26.460938 -156.914062 23.390625 -158.0625 19.609375 -158.0625 C 18.816406 -158.0625 18.03125 -157.984375 17.25 -157.828125 L 14.40625 -157.59375 L 13.9375 -159.953125 C 22.125 -160.742188 33.109375 -162.28125 46.890625 -164.5625 C 60.679688 -166.84375 69.226562 -168.179688 72.53125 -168.578125 C 75.84375 -168.972656 79.390625 -169.171875 83.171875 -169.171875 Z M 83.171875 -169.171875 "/></g></g></g><g fill="#010f30" fill-opacity="1"><g transform="translate(359.61438, 230.412016)"><g><path d="M 28.109375 -62.84375 C 19.921875 -52.132812 15.828125 -40.554688 15.828125 -28.109375 C 15.828125 -13.304688 22.050781 -1.8125 34.5 6.375 C 41.738281 11.257812 49.960938 13.703125 59.171875 13.703125 C 68.390625 13.703125 76.390625 11.890625 83.171875 8.265625 C 95.921875 1.648438 103.085938 -9.453125 104.671875 -25.046875 C 104.828125 -26.148438 104.90625 -27.253906 104.90625 -28.359375 C 104.90625 -34.179688 103.289062 -40.476562 100.0625 -47.25 C 96.832031 -54.019531 91.59375 -60.242188 84.34375 -65.921875 L 41.8125 -99.46875 C 32.519531 -106.71875 27.875 -116.085938 27.875 -127.578125 C 27.875 -139.078125 31.578125 -148.800781 38.984375 -156.75 C 46.390625 -164.707031 56.390625 -168.6875 68.984375 -168.6875 C 75.285156 -168.6875 82.140625 -167.898438 89.546875 -166.328125 L 99 -166.328125 L 99.46875 -137.265625 L 97.109375 -137.265625 C 96.953125 -144.828125 94.234375 -150.773438 88.953125 -155.109375 C 83.679688 -159.441406 77.066406 -161.609375 69.109375 -161.609375 C 61.148438 -161.609375 54.492188 -158.96875 49.140625 -153.6875 C 43.785156 -148.414062 41.109375 -141.644531 41.109375 -133.375 C 41.109375 -125.101562 44.570312 -118.210938 51.5 -112.703125 L 95.21875 -78.203125 C 112.539062 -64.503906 121.203125 -47.96875 121.203125 -28.59375 C 121.203125 -14.101562 115.453125 -1.660156 103.953125 8.734375 C 94.035156 17.710938 80.804688 22.203125 64.265625 22.203125 C 54.179688 22.203125 45.203125 20.3125 37.328125 16.53125 C 22.523438 9.601562 13.625 -2.207031 10.625 -18.90625 C 10.15625 -21.425781 9.921875 -24.613281 9.921875 -28.46875 C 9.921875 -32.332031 11.019531 -37.609375 13.21875 -44.296875 C 15.425781 -50.992188 19.679688 -57.726562 25.984375 -64.5 Z M 28.109375 -62.84375 "/></g></g></g><g fill="#010f30" fill-opacity="1"><g transform="translate(489.323629, 230.412016)"><g><path d="M 83.171875 -169.171875 C 96.867188 -169.171875 108.285156 -165.863281 117.421875 -159.25 C 129.710938 -150.425781 135.859375 -136.640625 135.859375 -117.890625 C 135.859375 -104.347656 132.078125 -92.773438 124.515625 -83.171875 C 116.316406 -72.929688 104.894531 -67.8125 90.25 -67.8125 C 82.53125 -67.8125 75.519531 -69.660156 69.21875 -73.359375 C 62.925781 -77.054688 59.226562 -83.394531 58.125 -92.375 L 60.25 -93.09375 C 61.976562 -86.3125 65.992188 -81.582031 72.296875 -78.90625 C 76.546875 -77.019531 80.328125 -76.078125 83.640625 -76.078125 C 96.554688 -76.078125 105.925781 -81.117188 111.75 -91.203125 C 116.007812 -98.597656 118.140625 -107.414062 118.140625 -117.65625 C 118.140625 -134.039062 113.566406 -145.851562 104.421875 -153.09375 C 97.492188 -158.769531 88.675781 -161.609375 77.96875 -161.609375 C 75.445312 -161.609375 73.28125 -161.488281 71.46875 -161.25 C 69.65625 -161.007812 61.738281 -159.710938 47.71875 -157.359375 L 47.71875 -17.25 C 47.882812 -13 49.460938 -9.453125 52.453125 -6.609375 C 55.441406 -3.773438 58.90625 -2.359375 62.84375 -2.359375 L 65.921875 -2.359375 L 65.921875 0 L 14.171875 0 L 14.171875 -2.359375 L 17.25 -2.359375 C 21.1875 -2.359375 24.648438 -3.773438 27.640625 -6.609375 C 30.628906 -9.453125 32.207031 -13 32.375 -17.25 L 32.375 -145.0625 C 32.375 -149.15625 31.191406 -152.34375 28.828125 -154.625 C 26.460938 -156.914062 23.390625 -158.0625 19.609375 -158.0625 C 18.816406 -158.0625 18.03125 -157.984375 17.25 -157.828125 L 14.40625 -157.59375 L 13.9375 -159.953125 C 22.125 -160.742188 33.109375 -162.28125 46.890625 -164.5625 C 60.679688 -166.84375 69.226562 -168.179688 72.53125 -168.578125 C 75.84375 -168.972656 79.390625 -169.171875 83.171875 -169.171875 Z M 83.171875 -169.171875 "/></g></g></g></g></g></g></g></g></svg>