<svg xmlns="http://www.w3.org/2000/svg" xmlns:xlink="http://www.w3.org/1999/xlink" width="2000" zoomAndPan="magnify" viewBox="0 0 1500 1499.999933" height="2000" preserveAspectRatio="xMidYMid meet" version="1.0"><defs><clipPath id="1d31f5839b"><path d="M 0.273438 0.992188 L 382.035156 0.992188 L 382.035156 380 L 0.273438 380 Z M 0.273438 0.992188 " clip-rule="nonzero"/></clipPath><clipPath id="6aade835e3"><path d="M 191.152344 0.992188 L 207.414062 126.125 L 280.230469 22.910156 L 237.105469 141.679688 L 349.515625 83.707031 L 256.195312 168.542969 L 382.035156 169.957031 L 259.730469 201.769531 L 370.722656 261.15625 L 248.417969 232.878906 L 318.40625 337.507812 L 223.675781 254.792969 L 237.105469 379.925781 L 191.152344 262.570312 L 145.199219 379.925781 L 158.632812 254.792969 L 63.898438 337.507812 L 133.890625 232.878906 L 11.585938 261.15625 L 122.578125 201.769531 L 0.273438 169.957031 L 126.113281 168.542969 L 32.792969 83.707031 L 145.199219 141.679688 L 102.078125 22.910156 L 174.894531 126.125 Z M 191.152344 0.992188 " clip-rule="nonzero"/></clipPath><clipPath id="afa4af324f"><path d="M 0.273438 0.992188 L 382.035156 0.992188 L 382.035156 380 L 0.273438 380 Z M 0.273438 0.992188 " clip-rule="nonzero"/></clipPath><clipPath id="6c2af5c962"><path d="M 191.152344 0.992188 L 207.414062 126.125 L 280.230469 22.910156 L 237.105469 141.679688 L 349.515625 83.707031 L 256.195312 168.542969 L 382.035156 169.957031 L 259.730469 201.769531 L 370.722656 261.15625 L 248.417969 232.878906 L 318.40625 337.507812 L 223.675781 254.792969 L 237.105469 379.925781 L 191.152344 262.570312 L 145.199219 379.925781 L 158.632812 254.792969 L 63.898438 337.507812 L 133.890625 232.878906 L 11.585938 261.15625 L 122.578125 201.769531 L 0.273438 169.957031 L 126.113281 168.542969 L 32.792969 83.707031 L 145.199219 141.679688 L 102.078125 22.910156 L 174.894531 126.125 Z M 191.152344 0.992188 " clip-rule="nonzero"/></clipPath><clipPath id="f32f35ed78"><rect x="0" width="383" y="0" height="380"/></clipPath><clipPath id="19cf091fe2"><path d="M 146.460938 147.179688 L 235.5 147.179688 L 235.5 236.21875 L 146.460938 236.21875 Z M 146.460938 147.179688 " clip-rule="nonzero"/></clipPath><clipPath id="542fa0437d"><path d="M 193.769531 147.605469 L 197.691406 161.886719 C 198.632812 162.09375 199.566406 162.34375 200.488281 162.636719 L 211.023438 152.226562 C 212.582031 153.011719 214.097656 153.882812 215.554688 154.84375 L 211.808594 169.171875 C 212.523438 169.820312 213.207031 170.503906 213.855469 171.21875 L 228.183594 167.472656 C 229.144531 168.933594 230.019531 170.445312 230.800781 172.003906 L 220.390625 182.539062 C 220.6875 183.460938 220.9375 184.394531 221.140625 185.335938 L 235.421875 189.257812 C 235.527344 191 235.527344 192.746094 235.421875 194.488281 L 221.140625 198.410156 C 220.9375 199.351562 220.6875 200.285156 220.390625 201.207031 L 230.800781 211.742188 C 230.019531 213.304688 229.144531 214.816406 228.183594 216.273438 L 213.855469 212.527344 C 213.207031 213.242188 212.523438 213.925781 211.808594 214.574219 L 215.554688 228.902344 C 214.097656 229.863281 212.582031 230.738281 211.023438 231.519531 L 200.488281 221.113281 C 199.566406 221.40625 198.632812 221.65625 197.691406 221.859375 L 193.769531 236.140625 C 192.027344 236.246094 190.28125 236.246094 188.539062 236.140625 L 184.617188 221.859375 C 183.671875 221.65625 182.742188 221.40625 181.820312 221.113281 L 171.285156 231.519531 C 169.722656 230.738281 168.210938 229.863281 166.753906 228.902344 L 170.5 214.574219 C 169.785156 213.925781 169.101562 213.242188 168.449219 212.527344 L 154.125 216.273438 C 153.164062 214.816406 152.289062 213.304688 151.507812 211.742188 L 161.914062 201.207031 C 161.621094 200.285156 161.371094 199.351562 161.164062 198.410156 L 146.882812 194.488281 C 146.78125 192.746094 146.78125 191 146.882812 189.257812 L 161.164062 185.335938 C 161.371094 184.394531 161.621094 183.460938 161.914062 182.539062 L 151.507812 172.003906 C 152.289062 170.445312 153.164062 168.933594 154.125 167.472656 L 168.449219 171.21875 C 169.101562 170.503906 169.785156 169.820312 170.5 169.171875 L 166.753906 154.84375 C 168.210938 153.882812 169.722656 153.011719 171.285156 152.226562 L 181.820312 162.636719 C 182.742188 162.34375 183.671875 162.09375 184.617188 161.886719 L 188.539062 147.605469 C 190.28125 147.503906 192.027344 147.503906 193.769531 147.605469 Z M 191.152344 170.882812 C 179.570312 170.882812 170.164062 180.289062 170.164062 191.875 C 170.164062 203.457031 179.570312 212.863281 191.152344 212.863281 C 202.738281 212.863281 212.140625 203.457031 212.140625 191.875 C 212.140625 180.289062 202.738281 170.882812 191.152344 170.882812 Z M 191.152344 170.882812 " clip-rule="nonzero"/></clipPath><clipPath id="6d0055aac3"><path d="M 0.601562 0.320312 L 89.5 0.320312 L 89.5 89.21875 L 0.601562 89.21875 Z M 0.601562 0.320312 " clip-rule="nonzero"/></clipPath><clipPath id="7f3c048726"><path d="M 47.769531 0.605469 L 51.691406 14.886719 C 52.632812 15.09375 53.566406 15.34375 54.488281 15.636719 L 65.023438 5.226562 C 66.582031 6.011719 68.097656 6.882812 69.554688 7.84375 L 65.808594 22.171875 C 66.523438 22.820312 67.207031 23.503906 67.855469 24.21875 L 82.183594 20.472656 C 83.144531 21.933594 84.019531 23.445312 84.800781 25.003906 L 74.390625 35.539062 C 74.6875 36.460938 74.9375 37.394531 75.140625 38.335938 L 89.421875 42.257812 C 89.527344 44 89.527344 45.746094 89.421875 47.488281 L 75.140625 51.410156 C 74.9375 52.351562 74.6875 53.285156 74.390625 54.207031 L 84.800781 64.742188 C 84.019531 66.304688 83.144531 67.816406 82.183594 69.273438 L 67.855469 65.527344 C 67.207031 66.242188 66.523438 66.925781 65.808594 67.574219 L 69.554688 81.902344 C 68.097656 82.863281 66.582031 83.738281 65.023438 84.519531 L 54.488281 74.113281 C 53.566406 74.40625 52.632812 74.65625 51.691406 74.859375 L 47.769531 89.140625 C 46.027344 89.246094 44.28125 89.246094 42.539062 89.140625 L 38.617188 74.859375 C 37.671875 74.65625 36.742188 74.40625 35.820312 74.113281 L 25.285156 84.519531 C 23.722656 83.738281 22.210938 82.863281 20.753906 81.902344 L 24.5 67.574219 C 23.785156 66.925781 23.101562 66.242188 22.449219 65.527344 L 8.125 69.273438 C 7.164062 67.816406 6.289062 66.304688 5.507812 64.742188 L 15.914062 54.207031 C 15.621094 53.285156 15.371094 52.351562 15.164062 51.410156 L 0.882812 47.488281 C 0.78125 45.746094 0.78125 44 0.882812 42.257812 L 15.164062 38.335938 C 15.371094 37.394531 15.621094 36.460938 15.914062 35.539062 L 5.507812 25.003906 C 6.289062 23.445312 7.164062 21.933594 8.125 20.472656 L 22.449219 24.21875 C 23.101562 23.503906 23.785156 22.820312 24.5 22.171875 L 20.753906 7.84375 C 22.210938 6.882812 23.722656 6.011719 25.285156 5.226562 L 35.820312 15.636719 C 36.742188 15.34375 37.671875 15.09375 38.617188 14.886719 L 42.539062 0.605469 C 44.28125 0.503906 46.027344 0.503906 47.769531 0.605469 Z M 45.152344 23.882812 C 33.570312 23.882812 24.164062 33.289062 24.164062 44.875 C 24.164062 56.457031 33.570312 65.863281 45.152344 65.863281 C 56.738281 65.863281 66.140625 56.457031 66.140625 44.875 C 66.140625 33.289062 56.738281 23.882812 45.152344 23.882812 Z M 45.152344 23.882812 " clip-rule="nonzero"/></clipPath><clipPath id="98b5b96473"><rect x="0" width="90" y="0" height="90"/></clipPath><clipPath id="36576b3975"><rect x="0" width="383" y="0" height="383"/></clipPath></defs><g transform="matrix(1, 0, 0, 1, 493, 529)"><g clip-path="url(#36576b3975)"><g clip-path="url(#1d31f5839b)"><g clip-path="url(#6aade835e3)"><g transform="matrix(1, 0, 0, 1, 0.000000000000056843, 0.000000000000113687)"><g clip-path="url(#f32f35ed78)"><g clip-path="url(#afa4af324f)"><g clip-path="url(#6c2af5c962)"><path fill="#ffffff" d="M 0.273438 0.992188 L 382.035156 0.992188 L 382.035156 382.753906 L 0.273438 382.753906 Z M 0.273438 0.992188 " fill-opacity="1" fill-rule="nonzero"/></g></g></g></g></g></g><g clip-path="url(#19cf091fe2)"><g clip-path="url(#542fa0437d)"><g transform="matrix(1, 0, 0, 1, 146, 147)"><g clip-path="url(#98b5b96473)"><g clip-path="url(#6d0055aac3)"><g clip-path="url(#7f3c048726)"><path fill="#010f30" d="M 0.808594 0.527344 L 89.5 0.527344 L 89.5 89.21875 L 0.808594 89.21875 Z M 0.808594 0.527344 " fill-opacity="1" fill-rule="nonzero"/></g></g></g></g></g></g></g></g></svg>